<svg width="512" height="512" viewBox="0 0 512 512" fill="none" xmlns="http://www.w3.org/2000/svg">
  <rect width="512" height="512" rx="64" fill="#2563eb"/>
  <g transform="translate(128, 128)">
    <rect width="256" height="256" rx="32" fill="#ffffff" fill-opacity="0.1"/>
    <path d="M128 64C157.82 64 182 88.18 182 118V138C182 167.82 157.82 192 128 192C98.18 192 74 167.82 74 138V118C74 88.18 98.18 64 128 64Z" fill="#ffffff"/>
    <path d="M128 96C139.05 96 148 104.95 148 116V140C148 151.05 139.05 160 128 160C116.95 160 108 151.05 108 140V116C108 104.95 116.95 96 128 96Z" fill="#2563eb"/>
    <text x="128" y="230" text-anchor="middle" fill="#ffffff" font-family="Arial, sans-serif" font-size="32" font-weight="bold">OMNIX AI</text>
  </g>
</svg>